<svg width="16" height="16" viewBox="0 0 16 16" fill="none" xmlns="http://www.w3.org/2000/svg">
<path d="M11.6333 15.1666C10.88 15.1666 10.0867 14.9866 9.26666 14.64C8.46666 14.3 7.66 13.8333 6.87333 13.2666C6.09333 12.6933 5.33999 12.0533 4.62666 11.3533C3.92 10.64 3.28 9.88665 2.71333 9.11331C2.14 8.31331 1.67999 7.51331 1.35333 6.73998C1.00666 5.91331 0.833328 5.11331 0.833328 4.35998C0.833328 3.83998 0.926662 3.34665 1.10666 2.88665C1.29333 2.41331 1.59333 1.97331 1.99999 1.59331C2.51333 1.08665 3.1 0.833313 3.72666 0.833313C3.98666 0.833313 4.25333 0.893313 4.47999 0.99998C4.73999 1.11998 4.95999 1.29998 5.12 1.53998L6.66666 3.71998C6.80666 3.91331 6.91333 4.09998 6.98666 4.28665C7.07333 4.48665 7.12 4.68665 7.12 4.87998C7.12 5.13331 7.04666 5.37998 6.90666 5.61331C6.80666 5.79331 6.65333 5.98665 6.45999 6.17998L6.00666 6.65331C6.01333 6.67331 6.02 6.68665 6.02666 6.69998C6.10666 6.83998 6.26666 7.07998 6.57333 7.43998C6.89999 7.81331 7.20666 8.15331 7.51333 8.46665C7.90666 8.85331 8.23333 9.15998 8.54 9.41331C8.92 9.73331 9.16666 9.89331 9.31333 9.96665L9.3 9.99998L9.78666 9.51998C9.99333 9.31331 10.1933 9.15998 10.3867 9.05998C10.7533 8.83331 11.22 8.79331 11.6867 8.98665C11.86 9.05998 12.0467 9.15998 12.2467 9.29998L14.46 10.8733C14.7067 11.04 14.8867 11.2533 14.9933 11.5066C15.0933 11.76 15.14 11.9933 15.14 12.2266C15.14 12.5466 15.0667 12.8666 14.9267 13.1666C14.7867 13.4666 14.6133 13.7266 14.3933 13.9666C14.0133 14.3866 13.6 14.6866 13.12 14.88C12.66 15.0666 12.16 15.1666 11.6333 15.1666ZM3.72666 1.83331C3.36 1.83331 3.01999 1.99331 2.69333 2.31331C2.38666 2.59998 2.17333 2.91331 2.03999 3.25331C1.89999 3.59998 1.83333 3.96665 1.83333 4.35998C1.83333 4.97998 1.98 5.65331 2.27333 6.34665C2.57333 7.05331 2.99333 7.78665 3.52666 8.51998C4.05999 9.25331 4.66666 9.96665 5.33333 10.64C6 11.3 6.72 11.9133 7.45999 12.4533C8.18 12.98 8.92 13.4066 9.65333 13.7133C10.7933 14.2 11.86 14.3133 12.74 13.9466C13.08 13.8066 13.38 13.5933 13.6533 13.2866C13.8067 13.12 13.9267 12.94 14.0267 12.7266C14.1067 12.56 14.1467 12.3866 14.1467 12.2133C14.1467 12.1066 14.1267 12 14.0733 11.88C14.0533 11.84 14.0133 11.7666 13.8867 11.68L11.6733 10.1066C11.54 10.0133 11.42 9.94665 11.3067 9.89998C11.16 9.83998 11.1 9.77998 10.8733 9.91998C10.74 9.98665 10.62 10.0866 10.4867 10.22L9.98 10.72C9.72 10.9733 9.32 11.0333 9.01333 10.92L8.83333 10.84C8.56 10.6933 8.24 10.4666 7.88666 10.1666C7.56666 9.89331 7.22 9.57331 6.79999 9.15998C6.47333 8.82665 6.14666 8.47331 5.80666 8.07998C5.49333 7.71331 5.26666 7.39998 5.12666 7.13998L5.04666 6.93998C5.00666 6.78665 4.99333 6.69998 4.99333 6.60665C4.99333 6.36665 5.08 6.15331 5.24666 5.98665L5.74666 5.46665C5.87999 5.33331 5.97999 5.20665 6.04666 5.09331C6.09999 5.00665 6.12 4.93331 6.12 4.86665C6.12 4.81331 6.1 4.73331 6.06666 4.65331C6.02 4.54665 5.94666 4.42665 5.85333 4.29998L4.30666 2.11331C4.24 2.01998 4.16 1.95331 4.06 1.90665C3.95333 1.85998 3.84 1.83331 3.72666 1.83331ZM9.3 10.0066L9.19333 10.46L9.37333 9.99331C9.34 9.98665 9.31333 9.99331 9.3 10.0066Z" fill="#7C7F84"/>
</svg>
