<svg width="54" height="54" viewBox="0 0 54 54" fill="none" xmlns="http://www.w3.org/2000/svg">
<circle cx="27" cy="27" r="27" fill="#EEFBF5"/>
<path d="M23.5083 18.6667H30.4916C33.525 18.6667 35.3333 20.475 35.3333 23.5084V30.4834C35.3333 33.525 33.525 35.3334 30.4916 35.3334H23.5166C20.4833 35.3334 18.675 33.525 18.675 30.4917V23.5084C18.6666 20.475 20.475 18.6667 23.5083 18.6667ZM28.7416 30.4917C28.7416 31.025 29.175 31.4584 29.7166 31.4584C30.25 31.4584 30.6833 31.025 30.6833 30.4917V27.775C30.6833 27.2417 30.25 26.8084 29.7166 26.8084C29.175 26.8084 28.7416 27.2417 28.7416 27.775V30.4917ZM23.3166 30.4917C23.3166 31.025 23.75 31.4584 24.2833 31.4584C24.825 31.4584 25.2583 31.025 25.2583 30.4917V23.5084C25.2583 22.975 24.825 22.5417 24.2833 22.5417C23.75 22.5417 23.3166 22.975 23.3166 23.5084V30.4917Z" fill="#41C3A9"/>
</svg>
