<svg width="16" height="16" viewBox="0 0 16 16" fill="none" xmlns="http://www.w3.org/2000/svg">
<path d="M10.0001 15.1667C9.82013 15.1667 9.65347 15.0667 9.5668 14.9133C9.48013 14.76 9.48013 14.5667 9.57346 14.4133L10.2735 13.2467C10.4135 13.0067 10.7201 12.9333 10.9601 13.0733C11.2001 13.2133 11.2735 13.52 11.1335 13.76L10.9535 14.06C12.7935 13.6267 14.1735 11.9733 14.1735 10C14.1735 9.72667 14.4001 9.5 14.6735 9.5C14.9468 9.5 15.1735 9.72667 15.1735 10C15.1668 12.8467 12.8468 15.1667 10.0001 15.1667Z" fill="#7C7F84"/>
<path d="M1.33333 6.49999C1.05999 6.49999 0.833328 6.27333 0.833328 5.99999C0.833328 3.15333 3.15333 0.833328 6 0.833328C6.18 0.833328 6.34666 0.933331 6.43332 1.08666C6.51999 1.24 6.51999 1.43333 6.42666 1.58666L5.72666 2.75333C5.58666 2.99333 5.27999 3.06667 5.03999 2.92667C4.79999 2.78667 4.72666 2.47999 4.86666 2.23999L5.04667 1.93998C3.20667 2.37331 1.82667 4.02666 1.82667 5.99999C1.83333 6.27333 1.60666 6.49999 1.33333 6.49999Z" fill="#7C7F84"/>
<path d="M11.7866 4.99992C11.6999 4.99992 11.6133 4.97993 11.5333 4.93327L8.88659 3.3999C8.64659 3.2599 8.56658 2.95325 8.70658 2.71325C8.84658 2.47325 9.15325 2.39324 9.38659 2.53324L11.7866 3.91992L14.1666 2.53991C14.4066 2.39991 14.7133 2.48659 14.8466 2.71993C14.9866 2.95993 14.8999 3.26657 14.6666 3.40657L12.0333 4.92659C11.9599 4.97326 11.8732 4.99992 11.7866 4.99992Z" fill="#7C7F84"/>
<path d="M11.7868 7.71325C11.5135 7.71325 11.2868 7.48659 11.2868 7.21325V4.49324C11.2868 4.21991 11.5135 3.99324 11.7868 3.99324C12.0601 3.99324 12.2868 4.21991 12.2868 4.49324V7.21325C12.2868 7.49325 12.0601 7.71325 11.7868 7.71325Z" fill="#7C7F84"/>
<path d="M11.7866 7.83329C11.4799 7.83329 11.1666 7.76663 10.9199 7.62663L9.3199 6.73995C8.7999 6.45328 8.40657 5.77998 8.40657 5.18664V3.49328C8.40657 2.89328 8.79991 2.22664 9.32657 1.93331L10.9266 1.04663C11.4199 0.773296 12.1599 0.773296 12.6599 1.04663L14.2599 1.93331C14.7799 2.21997 15.1732 2.89328 15.1732 3.48661V5.17997C15.1732 5.77997 14.7799 6.44661 14.2599 6.73327L12.6599 7.61995C12.3999 7.76662 12.0932 7.83329 11.7866 7.83329ZM11.4066 1.91329L9.80657 2.79997C9.60657 2.9133 9.40657 3.25327 9.40657 3.47994V5.1733C9.40657 5.40663 9.60657 5.74664 9.80657 5.85331L11.4066 6.74662C11.5999 6.85329 11.9732 6.85329 12.1666 6.74662L13.7666 5.85994C13.9666 5.74661 14.1666 5.40664 14.1666 5.17997V3.48661C14.1666 3.25328 13.9666 2.91331 13.7666 2.80664L12.1666 1.91996C11.9732 1.80663 11.5932 1.80662 11.4066 1.91329Z" fill="#7C7F84"/>
<path d="M4.21335 12.3332C4.12668 12.3332 4.04001 12.3133 3.96001 12.2666L1.31334 10.7332C1.07334 10.5932 0.993341 10.2866 1.13334 10.0466C1.27334 9.80658 1.58001 9.72657 1.81334 9.86657L4.21335 11.2532L6.59334 9.87324C6.83334 9.73324 7.14001 9.81992 7.27335 10.0533C7.41335 10.2933 7.32668 10.5999 7.09334 10.7399L4.46001 12.2599C4.38668 12.3066 4.30001 12.3332 4.21335 12.3332Z" fill="#7C7F84"/>
<path d="M4.21321 15.0466C3.93988 15.0466 3.71321 14.8199 3.71321 14.5466V11.8266C3.71321 11.5533 3.93988 11.3266 4.21321 11.3266C4.48654 11.3266 4.71321 11.5533 4.71321 11.8266V14.5466C4.71321 14.8266 4.49321 15.0466 4.21321 15.0466Z" fill="#7C7F84"/>
<path d="M4.21333 15.1666C3.90667 15.1666 3.59333 15.1 3.34666 14.96L1.74666 14.0733C1.22666 13.7866 0.833328 13.1133 0.833328 12.52V10.8266C0.833328 10.2266 1.22666 9.55994 1.74666 9.27328L3.34666 8.38664C3.84 8.11331 4.58666 8.11331 5.07999 8.38664L6.68 9.27328C7.2 9.55994 7.59333 10.2333 7.59333 10.8266V12.52C7.59333 13.12 7.19999 13.7866 6.67332 14.08L5.07333 14.9666C4.83333 15.1 4.52667 15.1666 4.21333 15.1666ZM3.83333 9.24663L2.23333 10.1333C2.03333 10.2466 1.83333 10.5866 1.83333 10.8133V12.5066C1.83333 12.74 2.03333 13.08 2.23333 13.1866L3.83333 14.0733C4.02666 14.18 4.39999 14.18 4.59333 14.0733L6.19332 13.1866C6.39332 13.0733 6.59333 12.7333 6.59333 12.5066V10.8133C6.59333 10.5799 6.39332 10.24 6.19332 10.1333L4.59333 9.23995C4.40666 9.13995 4.02666 9.13996 3.83333 9.24663Z" fill="#7C7F84"/>
</svg>
