<svg width="13" height="3" viewBox="0 0 13 3" fill="none" xmlns="http://www.w3.org/2000/svg">
<path d="M6.31 0.189999C5.59 0.189999 5 0.779999 5 1.5C5 2.22 5.59 2.81 6.31 2.81C7.03 2.81 7.62 2.22 7.62 1.5C7.62 0.779999 7.03 0.189999 6.31 0.189999Z" fill="#292D32"/>
<path d="M1.31 0.189999C0.59 0.189999 0 0.779999 0 1.5C0 2.22 0.59 2.81 1.31 2.81C2.03 2.81 2.62 2.22 2.62 1.5C2.62 0.779999 2.03 0.189999 1.31 0.189999Z" fill="#292D32"/>
<path d="M11.31 0.189999C10.59 0.189999 10 0.779999 10 1.5C10 2.22 10.59 2.81 11.31 2.81C12.03 2.81 12.62 2.22 12.62 1.5C12.62 0.779999 12.03 0.189999 11.31 0.189999Z" fill="#292D32"/>
</svg>
