<svg width="16" height="16" viewBox="0 0 16 16" fill="none" xmlns="http://www.w3.org/2000/svg">
<path d="M11.86 15.1667H4.13999C2.31333 15.1667 0.833328 13.68 0.833328 11.8533V6.91333C0.833328 6.00666 1.39333 4.86666 2.11333 4.30666L5.70666 1.50666C6.78666 0.66666 8.51333 0.62666 9.63333 1.41333L13.7533 4.29999C14.5467 4.85333 15.1667 6.03999 15.1667 7.00666V11.86C15.1667 13.68 13.6867 15.1667 11.86 15.1667ZM6.31999 2.29333L2.72666 5.09333C2.25333 5.46666 1.83333 6.31333 1.83333 6.91333V11.8533C1.83333 13.1267 2.86666 14.1667 4.13999 14.1667H11.86C13.1333 14.1667 14.1667 13.1333 14.1667 11.86V7.00666C14.1667 6.36666 13.7067 5.47999 13.18 5.11999L9.05999 2.23333C8.29999 1.69999 7.04666 1.72666 6.31999 2.29333Z" fill="#7C7F84"/>
<path d="M8 12.5C7.72667 12.5 7.5 12.2733 7.5 12V10C7.5 9.72667 7.72667 9.5 8 9.5C8.27333 9.5 8.5 9.72667 8.5 10V12C8.5 12.2733 8.27333 12.5 8 12.5Z" fill="#7C7F84"/>
</svg>
