<svg width="101" height="34" viewBox="0 0 101 34" fill="none" xmlns="http://www.w3.org/2000/svg">
<path d="M100.5 18.5L97 27.5L94 23H89.5L87 18L83 1.5L81 5L77 1L73 17.5L72.5 14.5L69 21L67 14.5L61 31L61.5 25.5L59 30L52.5 20.5L50.5 27L47 23L42.5 14.5L39.5 20L36 23L33 10.5L31.5 14.5L30 10L25.75 23L23 20.5L22 5.5L19.5 9L18 18L15 14.5L12 12.5L10 16.5L6 19.5L4 13.5L1 14.5" stroke="#F9896B" stroke-linecap="round"/>
<path d="M97 27.5L100.5 18.5V33.5H1V14.5L4 13.5L6 19.5L10 16.5L12 12.5L15 14.5L18 18L19.5 9L22 5.5L23 20.5L25.75 23L30 10L31.5 14.5L33 10.5L36 23L39.5 20L42.5 14.5L47 23L50.5 27L52.5 20.5L59 30L61.5 25.5L61 31L67 14.5L69 21L72.5 14.5L73 17.5L77 1L81 5L83 1.5L87 18L89.5 23H94L97 27.5Z" fill="url(#paint0_linear_0_329)"/>
<defs>
<linearGradient id="paint0_linear_0_329" x1="50.75" y1="1" x2="50.75" y2="33.5" gradientUnits="userSpaceOnUse">
<stop stop-color="#EC7080"/>
<stop offset="1" stop-color="#EC7080" stop-opacity="0"/>
</linearGradient>
</defs>
</svg>
