<svg width="16" height="16" viewBox="0 0 16 16" fill="none" xmlns="http://www.w3.org/2000/svg">
<path d="M12.8933 9.66L12.2266 8.55334C12.0866 8.30667 11.96 7.84 11.96 7.56667V5.88C11.96 4.31334 11.04 2.96 9.71332 2.32667C9.36665 1.71334 8.72665 1.33334 7.99332 1.33334C7.26665 1.33334 6.61332 1.72667 6.26665 2.34667C4.96665 2.99334 4.06665 4.33334 4.06665 5.88V7.56667C4.06665 7.84 3.93998 8.30667 3.79998 8.54667L3.12665 9.66C2.85998 10.1067 2.79998 10.6 2.96665 11.0533C3.12665 11.5 3.50665 11.8467 3.99998 12.0133C5.29332 12.4533 6.65332 12.6667 8.01332 12.6667C9.37332 12.6667 10.7333 12.4533 12.0266 12.02C12.4933 11.8667 12.8533 11.5133 13.0266 11.0533C13.2 10.5933 13.1533 10.0867 12.8933 9.66Z" fill="#9CA8BA"/>
<path d="M9.88666 13.34C9.60666 14.1133 8.86666 14.6667 7.99999 14.6667C7.47333 14.6667 6.95333 14.4533 6.58666 14.0733C6.37333 13.8733 6.21333 13.6067 6.12 13.3333C6.20666 13.3467 6.29333 13.3533 6.38666 13.3667C6.53999 13.3867 6.69999 13.4067 6.85999 13.42C7.23999 13.4533 7.62666 13.4733 8.01333 13.4733C8.39333 13.4733 8.77333 13.4533 9.14666 13.42C9.28666 13.4067 9.42666 13.4 9.55999 13.38C9.66666 13.3667 9.77333 13.3533 9.88666 13.34Z" fill="#9CA8BA"/>
</svg>
