<svg width="16" height="16" viewBox="0 0 16 16" fill="none" xmlns="http://www.w3.org/2000/svg">
<path d="M11.9999 5.27337C11.9799 5.27337 11.9665 5.27337 11.9465 5.27337H11.9132C10.6532 5.23337 9.71321 4.26003 9.71321 3.06003C9.71321 1.83336 10.7132 0.840027 11.9332 0.840027C13.1532 0.840027 14.1532 1.84003 14.1532 3.06003C14.1465 4.26669 13.2065 5.24003 12.0065 5.28003C12.0065 5.27336 12.0065 5.27337 11.9999 5.27337ZM11.9332 1.83336C11.2599 1.83336 10.7132 2.38003 10.7132 3.05337C10.7132 3.71337 11.2265 4.2467 11.8865 4.27337C11.8932 4.2667 11.9465 4.2667 12.0065 4.27337C12.6532 4.24003 13.1532 3.7067 13.1599 3.05337C13.1599 2.38003 12.6132 1.83336 11.9332 1.83336Z" fill="#7C7F84"/>
<path d="M12.0067 10.1867C11.7467 10.1867 11.4867 10.1667 11.2267 10.12C10.9533 10.0733 10.7733 9.81333 10.82 9.54C10.8667 9.26666 11.1267 9.08666 11.4 9.13333C12.22 9.27333 13.0867 9.12 13.6667 8.73334C13.98 8.52667 14.1467 8.26666 14.1467 8.00666C14.1467 7.74666 13.9733 7.49333 13.6667 7.28666C13.0867 6.89999 12.2067 6.74666 11.38 6.89333C11.1067 6.94666 10.8467 6.76 10.8 6.48666C10.7533 6.21333 10.9333 5.95333 11.2067 5.90667C12.2933 5.71333 13.42 5.91999 14.22 6.45333C14.8067 6.84666 15.1467 7.40666 15.1467 8.00666C15.1467 8.59999 14.8133 9.16667 14.22 9.56667C13.6133 9.96667 12.8267 10.1867 12.0067 10.1867Z" fill="#7C7F84"/>
<path d="M3.97999 5.27332C3.97333 5.27332 3.96666 5.27332 3.96666 5.27332C2.76666 5.23332 1.82666 4.25998 1.81999 3.05998C1.81999 1.83331 2.81999 0.833313 4.03999 0.833313C5.25999 0.833313 6.25999 1.83331 6.25999 3.05331C6.25999 4.25998 5.31999 5.23332 4.11999 5.27332L3.97999 4.77332L4.02666 5.27332C4.01333 5.27332 3.99333 5.27332 3.97999 5.27332ZM4.04666 4.27332C4.08666 4.27332 4.11999 4.27331 4.15999 4.27998C4.75333 4.25331 5.27333 3.71998 5.27333 3.05998C5.27333 2.38664 4.72666 1.83998 4.05333 1.83998C3.37999 1.83998 2.83333 2.38664 2.83333 3.05998C2.83333 3.71331 3.33999 4.23998 3.98666 4.27998C3.99333 4.27331 4.01999 4.27332 4.04666 4.27332Z" fill="#7C7F84"/>
<path d="M3.97333 10.1867C3.15333 10.1867 2.36666 9.96667 1.75999 9.56667C1.17333 9.17334 0.833328 8.60666 0.833328 8.00666C0.833328 7.41333 1.17333 6.84666 1.75999 6.45333C2.55999 5.91999 3.68666 5.71333 4.77333 5.90667C5.04666 5.95333 5.22666 6.21333 5.18 6.48666C5.13333 6.76 4.87333 6.94666 4.6 6.89333C3.77333 6.74666 2.9 6.89999 2.31333 7.28666C2 7.49333 1.83333 7.74666 1.83333 8.00666C1.83333 8.26666 2.00666 8.52667 2.31333 8.73334C2.89333 9.12 3.75999 9.27333 4.57999 9.13333C4.85333 9.08666 5.11333 9.27333 5.16 9.54C5.20666 9.81333 5.02666 10.0733 4.75333 10.12C4.49333 10.1667 4.23333 10.1867 3.97333 10.1867Z" fill="#7C7F84"/>
<path d="M7.99988 10.2533C7.97988 10.2533 7.96654 10.2533 7.94654 10.2533H7.91321C6.65321 10.2133 5.71321 9.24001 5.71321 8.04001C5.71321 6.81334 6.71321 5.82001 7.93321 5.82001C9.15321 5.82001 10.1532 6.82001 10.1532 8.04001C10.1465 9.24668 9.20654 10.22 8.00654 10.26C8.00654 10.2533 8.00654 10.2533 7.99988 10.2533ZM7.93321 6.81334C7.25988 6.81334 6.71321 7.36001 6.71321 8.03335C6.71321 8.69335 7.22655 9.22668 7.88655 9.25335C7.89321 9.24668 7.94654 9.24668 8.00654 9.25335C8.65321 9.22001 9.15321 8.68668 9.15988 8.03335C9.15988 7.36668 8.61321 6.81334 7.93321 6.81334Z" fill="#7C7F84"/>
<path d="M7.99986 15.1733C7.19986 15.1733 6.39986 14.9666 5.77986 14.5466C5.19319 14.1533 4.8532 13.5933 4.8532 12.9933C4.8532 12.4 5.18653 11.8266 5.77986 11.4333C7.02653 10.6066 8.97986 10.6066 10.2199 11.4333C10.8065 11.8266 11.1465 12.3866 11.1465 12.9866C11.1465 13.58 10.8132 14.1533 10.2199 14.5466C9.59986 14.96 8.79986 15.1733 7.99986 15.1733ZM6.3332 12.2733C6.01986 12.48 5.8532 12.74 5.8532 13C5.8532 13.26 6.02653 13.5133 6.3332 13.72C7.2332 14.3266 8.75986 14.3266 9.65986 13.72C9.9732 13.5133 10.1399 13.2533 10.1399 12.9933C10.1399 12.7333 9.96653 12.48 9.65986 12.2733C8.76653 11.6666 7.23986 11.6733 6.3332 12.2733Z" fill="#7C7F84"/>
</svg>
