<svg width="16" height="16" viewBox="0 0 16 16" fill="none" xmlns="http://www.w3.org/2000/svg">
<path d="M7.66667 14.5C3.9 14.5 0.833336 11.4333 0.833336 7.66667C0.833336 3.9 3.9 0.833336 7.66667 0.833336C11.4333 0.833336 14.5 3.9 14.5 7.66667C14.5 11.4333 11.4333 14.5 7.66667 14.5ZM7.66667 1.83334C4.44667 1.83334 1.83334 4.45334 1.83334 7.66667C1.83334 10.88 4.44667 13.5 7.66667 13.5C10.8867 13.5 13.5 10.88 13.5 7.66667C13.5 4.45334 10.8867 1.83334 7.66667 1.83334Z" fill="#97A1B6"/>
<path d="M14.6667 15.1667C14.54 15.1667 14.4133 15.12 14.3133 15.02L12.98 13.6867C12.7867 13.4933 12.7867 13.1733 12.98 12.98C13.1733 12.7867 13.4933 12.7867 13.6867 12.98L15.02 14.3133C15.2133 14.5067 15.2133 14.8267 15.02 15.02C14.92 15.12 14.7933 15.1667 14.6667 15.1667Z" fill="#97A1B6"/>
</svg>
