<svg width="46" height="46" viewBox="0 0 46 46" fill="none" xmlns="http://www.w3.org/2000/svg">
<circle cx="23" cy="23" r="22.5" fill="white" stroke="#DADADA"/>
<path d="M20.94 28.78C20.8133 28.78 20.6867 28.7333 20.5867 28.6333C20.3933 28.44 20.3933 28.12 20.5867 27.9267L24.9333 23.58C25.2533 23.26 25.2533 22.74 24.9333 22.42L20.5867 18.0733C20.3933 17.88 20.3933 17.56 20.5867 17.3667C20.78 17.1733 21.1 17.1733 21.2933 17.3667L25.64 21.7133C25.98 22.0533 26.1733 22.5133 26.1733 23C26.1733 23.4867 25.9867 23.9467 25.64 24.2867L21.2933 28.6333C21.1933 28.7267 21.0667 28.78 20.94 28.78Z" fill="#292D32"/>
</svg>
