<svg width="16" height="16" viewBox="0 0 16 16" fill="none" xmlns="http://www.w3.org/2000/svg">
<path d="M4.58667 12.6C4.31334 12.6 4.08667 12.3733 4.08667 12.1V10.72C4.08667 10.4467 4.31334 10.22 4.58667 10.22C4.86 10.22 5.08667 10.4467 5.08667 10.72V12.1C5.08667 12.38 4.86 12.6 4.58667 12.6Z" fill="#292D32"/>
<path d="M8 12.6C7.72667 12.6 7.5 12.3733 7.5 12.1V9.33334C7.5 9.06001 7.72667 8.83334 8 8.83334C8.27333 8.83334 8.5 9.06001 8.5 9.33334V12.1C8.5 12.38 8.27333 12.6 8 12.6Z" fill="#292D32"/>
<path d="M11.4133 12.6C11.14 12.6 10.9133 12.3733 10.9133 12.1V7.95334C10.9133 7.68001 11.14 7.45334 11.4133 7.45334C11.6867 7.45334 11.9133 7.68001 11.9133 7.95334V12.1C11.9133 12.38 11.6933 12.6 11.4133 12.6Z" fill="#292D32"/>
<path d="M4.58667 8.78666C4.36 8.78666 4.16 8.63333 4.1 8.40666C4.03334 8.14 4.19334 7.86666 4.46667 7.8C6.92 7.18666 9.08 5.84666 10.7267 3.93333L11.0333 3.57333C11.2133 3.36666 11.5267 3.34 11.74 3.52C11.9467 3.7 11.9733 4.01333 11.7933 4.22666L11.4867 4.58666C9.70667 6.66666 7.36 8.11333 4.70667 8.77333C4.66667 8.78666 4.62667 8.78666 4.58667 8.78666Z" fill="#292D32"/>
<path d="M11.4133 6.34666C11.14 6.34666 10.9133 6.11999 10.9133 5.84666V4.39999H9.46001C9.18667 4.39999 8.96001 4.17333 8.96001 3.89999C8.96001 3.62666 9.18667 3.39999 9.46001 3.39999H11.4133C11.6867 3.39999 11.9133 3.62666 11.9133 3.89999V5.85333C11.9133 6.12666 11.6933 6.34666 11.4133 6.34666Z" fill="#292D32"/>
<path d="M9.99999 15.1667H5.99999C2.37999 15.1667 0.833328 13.62 0.833328 10V6.00001C0.833328 2.38001 2.37999 0.833344 5.99999 0.833344H9.99999C13.62 0.833344 15.1667 2.38001 15.1667 6.00001V10C15.1667 13.62 13.62 15.1667 9.99999 15.1667ZM5.99999 1.83334C2.92666 1.83334 1.83333 2.92668 1.83333 6.00001V10C1.83333 13.0733 2.92666 14.1667 5.99999 14.1667H9.99999C13.0733 14.1667 14.1667 13.0733 14.1667 10V6.00001C14.1667 2.92668 13.0733 1.83334 9.99999 1.83334H5.99999Z" fill="#292D32"/>
</svg>
