<svg width="16" height="16" viewBox="0 0 16 16" fill="none" xmlns="http://www.w3.org/2000/svg">
<path d="M10.3333 10.5C10.2133 10.5 10.08 10.4933 9.95333 10.4867C9.70666 10.4733 9.50667 10.2733 9.48667 10.0267C9.34001 8.16665 7.82666 6.65997 5.97333 6.51331C5.72666 6.49331 5.52666 6.29332 5.51333 6.04665C5.50666 5.91998 5.5 5.79331 5.5 5.66665C5.5 2.99998 7.66667 0.833313 10.3333 0.833313C13 0.833313 15.1667 2.99998 15.1667 5.66665C15.1667 8.33331 13 10.5 10.3333 10.5ZM6.5 5.5733C8.48667 5.91997 10.08 7.51331 10.4267 9.49998C12.5 9.44665 14.1667 7.75331 14.1667 5.66665C14.1667 3.55331 12.4467 1.83331 10.3333 1.83331C8.25333 1.83331 6.55333 3.49997 6.5 5.5733Z" fill="#7C7F84"/>
<path d="M5.66666 15.1667C2.99999 15.1667 0.833328 13 0.833328 10.3333C0.833328 7.66667 2.99999 5.5 5.66666 5.5C5.78666 5.5 5.92 5.50666 6.04667 5.51333C8.4 5.69999 10.3067 7.60668 10.4867 9.94668C10.4933 10.08 10.5 10.2067 10.5 10.3333C10.5 13 8.33333 15.1667 5.66666 15.1667ZM5.66666 6.5C3.55333 6.5 1.83333 8.22 1.83333 10.3333C1.83333 12.4467 3.55333 14.1667 5.66666 14.1667C7.77999 14.1667 9.5 12.4467 9.5 10.3333C9.5 10.2267 9.49334 10.12 9.48667 10.02C9.34 8.17333 7.83332 6.65999 5.97332 6.51333C5.87999 6.50666 5.77333 6.5 5.66666 6.5Z" fill="#7C7F84"/>
<path d="M1.99999 4.89331C1.84666 4.89331 1.69999 4.86664 1.55332 4.80664C1.11332 4.62664 0.833328 4.19998 0.833328 3.72664V1.99998C0.833328 1.35998 1.35999 0.833313 1.99999 0.833313H3.72666C4.19999 0.833313 4.61999 1.1133 4.80666 1.5533C4.98666 1.9933 4.88665 2.49331 4.55332 2.82664L2.82665 4.5533C2.59999 4.7733 2.30666 4.89331 1.99999 4.89331ZM1.99999 1.83331C1.90666 1.83331 1.83333 1.90665 1.83333 1.99998V3.72664C1.83333 3.82664 1.89999 3.86665 1.93332 3.87998C1.97332 3.89332 2.04667 3.91331 2.11334 3.84664L3.84 2.11997C3.90667 2.05331 3.89333 1.97998 3.87333 1.93998C3.85333 1.89998 3.81332 1.83999 3.71999 1.83999H1.99999V1.83331Z" fill="#7C7F84"/>
<path d="M13.9999 15.1666H12.2732C11.7999 15.1666 11.3799 14.8867 11.1932 14.4467C11.0132 14.0067 11.1132 13.5067 11.4465 13.1733L13.1732 11.4467C13.5065 11.1133 14.0066 11.0133 14.4466 11.1933C14.8866 11.3733 15.1665 11.8 15.1665 12.2733V14C15.1665 14.64 14.6399 15.1666 13.9999 15.1666ZM13.9932 12.1067C13.9599 12.1067 13.9199 12.12 13.8799 12.16L12.1532 13.8866C12.0865 13.9533 12.0999 14.0267 12.1199 14.0667C12.1399 14.1067 12.1799 14.1666 12.2732 14.1666H13.9999C14.0932 14.1666 14.1665 14.0933 14.1665 14V12.2733C14.1665 12.1733 14.0999 12.1333 14.0665 12.12C14.0465 12.1133 14.0199 12.1067 13.9932 12.1067Z" fill="#7C7F84"/>
</svg>
