<svg width="622" height="257" viewBox="0 0 622 257" fill="none" xmlns="http://www.w3.org/2000/svg">
<path d="M1 256.5L17.5 204H25.5L29 217L44 194L57 121.5H68L79 181L95 163.5H101L110.5 152.5H123.5L137.5 213L144.5 172.5H150.5L158.5 152.5L169 138H176L179 115.5L186.5 110L194 135H200.5L205.5 45.5L212.5 77.5L222 104.5H235.5L242.5 85.5L246.5 58.5H254.5L266.5 35.5L273 58.5L287.5 6L296 39H301.5L311 29.5L318 76L325.5 58.5H330.5L337 121.5L357 107.5L371 124.5L382.5 91L395 115.5V124.5L415.5 135L432.5 73.5L438.5 70L446 56L457.5 48L471 3L487 30.5L492.5 13.5L514 50L525 21.5L539.5 30.5L546 40L553.5 36L561 47H572L580.5 76.5H589.5L593.5 80L606.5 29.5L621.5 21.5" stroke="#41C3A9" stroke-width="2"/>
</svg>
