<svg width="16" height="16" viewBox="0 0 16 16" fill="none" xmlns="http://www.w3.org/2000/svg">
<path d="M8.66667 7.93335H4.66667C4.39334 7.93335 4.16667 7.70668 4.16667 7.43335C4.16667 7.16002 4.39334 6.93335 4.66667 6.93335H8.66667C8.94001 6.93335 9.16667 7.16002 9.16667 7.43335C9.16667 7.70668 8.94001 7.93335 8.66667 7.93335Z" fill="#7C7F84"/>
<path d="M1.33333 7.9334C1.05999 7.9334 0.833328 7.70673 0.833328 7.4334V4.3534C0.833328 2.72007 2.16 1.3934 3.79333 1.3934H7.53999C9.25333 1.3934 10.5 2.5334 10.5 4.10007C10.5 4.3734 10.2733 4.60007 10 4.60007C9.72666 4.60007 9.5 4.3734 9.5 4.10007C9.5 2.92673 8.47999 2.3934 7.53999 2.3934H3.79333C2.71333 2.3934 1.83333 3.2734 1.83333 4.3534V7.4334C1.83333 7.7134 1.60666 7.9334 1.33333 7.9334Z" fill="#7C7F84"/>
<path d="M10.6667 14.6H3.99999C2.25333 14.6 0.833328 13.18 0.833328 11.4333V6.76667C0.833328 5.02001 2.25333 3.60001 3.99999 3.60001H10.6667C12.4133 3.60001 13.8333 5.02001 13.8333 6.76667V7.73331C13.8333 8.00664 13.6067 8.23331 13.3333 8.23331H12.6133C12.38 8.23331 12.1667 8.31997 12.0133 8.47997L12.0067 8.48664C11.7867 8.70664 11.7 9.0133 11.78 9.3133C11.88 9.68664 12.2733 9.95999 12.7133 9.95999H13.3333C13.6067 9.95999 13.8333 10.1867 13.8333 10.46V11.4267C13.8333 13.18 12.4133 14.6 10.6667 14.6ZM3.99999 4.60001C2.80666 4.60001 1.83333 5.57334 1.83333 6.76667V11.4333C1.83333 12.6267 2.80666 13.6 3.99999 13.6H10.6667C11.86 13.6 12.8333 12.6267 12.8333 11.4333V10.9667H12.7133C11.8133 10.9667 11.0333 10.4 10.8133 9.57999C10.64 8.93332 10.8267 8.24665 11.3 7.77998C11.6467 7.42665 12.1133 7.23331 12.6133 7.23331H12.8333V6.76667C12.8333 5.57334 11.86 4.60001 10.6667 4.60001H3.99999Z" fill="#7C7F84"/>
<path d="M13.9799 10.9667H12.6933C11.6866 10.9667 10.8333 10.22 10.7533 9.26C10.6999 8.70667 10.9 8.16664 11.3 7.77331C11.6333 7.42664 12.1066 7.23331 12.6066 7.23331H13.9733C14.6266 7.23331 15.1599 7.75999 15.1599 8.41332V9.78665C15.1666 10.44 14.6333 10.9667 13.9799 10.9667ZM12.6133 8.23331C12.3799 8.23331 12.1666 8.31997 12.0133 8.47997C11.82 8.66664 11.7266 8.92 11.7533 9.17333C11.7866 9.61333 12.2133 9.96666 12.6933 9.96666H13.9799C14.0799 9.96666 14.1666 9.88665 14.1666 9.78665V8.41332C14.1666 8.31332 14.0799 8.23331 13.9799 8.23331H12.6133Z" fill="#7C7F84"/>
</svg>
